# xmcd CD database file
#
# Track frame offsets:
#	150
#	16954
#	43672
#	59324
#	81016
#	102615
#	121032
#	138842
#	146681
#	169083
#	187311
#	207512
#	221880
#	236636
#	255555
#	275317
#
# Disc length: 4299 seconds
#
# Revision: 2
# Processed by: cddbd v1.5.2PL0 Copyright (c) Steve Scherf et al.
# Submitted via: CDex 1.51
#
DISCID=f010c910
DTITLE=Eric Burdon - Tobacco Road
DYEAR=2005
DGENRE=Rock
TTITLE0=I'm Ready
TTITLE1=Bird On The Beach
TTITLE2=Do You Feel It
TTITLE3=Take It Easy
TTITLE4=The Road
TTITLE5=Devil's Daughter
TTITLE6=Heart Attack
TTITLE7=Lights Out
TTITLE8=Stop What You're Doin
TTITLE9=Streetwalker
TTITLE10=Power Company
TTITLE11=Wicked Man
TTITLE12=Be My Baby
TTITLE13=Wall Of Silence
TTITLE14=Sweet Blood Call
TTITLE15=Tobacco Road
EXTD=YEAR: 2005
EXTT0=
EXTT1=
EXTT2=
EXTT3=
EXTT4=
EXTT5=
EXTT6=
EXTT7=
EXTT8=
EXTT9=
EXTT10=
EXTT11=
EXTT12=
EXTT13=
EXTT14=
EXTT15=
PLAYORDER=
